<svg width="100" height="100" viewBox="0 0 100 100" fill="none" xmlns="http://www.w3.org/2000/svg">
<g clip-path="url(#clip0_4_3)">
<path d="M85.5235 71.3684C85.5235 79.2632 79.1144 85.6842 71.2345 85.6842H28.5779C20.6979 85.6842 14.2889 79.2632 14.2889 71.3684V28.6316C14.2889 20.7368 20.6979 14.3158 28.5779 14.3158H40.9752V0H28.5779C12.818 0 0 12.8421 0 28.6316V71.2632C0 87.0526 12.818 99.8947 28.5779 99.8947H71.1295C86.8893 99.8947 99.7073 87.0526 99.7073 71.2632V58.9474H85.5231L85.5235 71.3684Z" fill="#03BF50"/>
<path d="M92.6679 0H56.8405V14.3158H75.4373L35.9327 53.8947C33.0957 56.6314 33.0957 61.263 35.9327 64.0004C37.2989 65.369 39.1895 66.1055 40.9756 66.1055C42.7617 66.1055 44.6533 65.3682 46.0186 64.0004L85.5233 24.4214V43.0532H99.8122L99.813 7.15846C99.813 3.15902 96.6608 0.00093985 92.6689 0.00093985L92.6679 0Z" fill="#03BF50"/>
</g>
<defs>
<clipPath id="clip0_4_3">
<rect width="100" height="100" fill="white"/>
</clipPath>
</defs>
</svg>
